<svg version="1.1" xmlns="http://www.w3.org/2000/svg" xmlns:xlink="http://www.w3.org/1999/xlink" x="0px" y="0px"
	 viewBox="0 0 410 574.2" style="enable-background:new 0 0 410 574.2;" xml:space="preserve">
<style type="text/css">
	.st0{fill:#484946;stroke:#621A40;stroke-width:8;stroke-linejoin:round;stroke-miterlimit:10;}
	.st1{fill:#595B53;}
	.st2{fill:#3E3F3B;}
	.st3{fill:#5A99AF;}
	.st4{fill:#621A40;}
	.st5{fill:#92C5D3;}
	.st6{fill:#3C7382;}
	.st7{fill:none;stroke:#621A40;stroke-width:2;stroke-linecap:round;stroke-linejoin:round;}
	.st8{fill:none;stroke:#621A40;stroke-width:2;stroke-linecap:round;stroke-linejoin:round;stroke-dasharray:5.4159,5.4159;}
	.st9{fill:none;stroke:#621A40;stroke-width:2;stroke-linecap:round;stroke-linejoin:round;stroke-dasharray:5.2614,5.2614;}
	.st10{fill:#FFDDC0;stroke:#621A40;stroke-width:6.9549;stroke-linejoin:round;stroke-miterlimit:10;}
	.st11{fill:#EDA692;}
	.st12{fill:none;stroke:#621A40;stroke-width:6.9549;stroke-linejoin:round;stroke-miterlimit:10;}
	.st13{fill:#FFF8F3;}
	.st14{fill:#FFDDC0;}
	.st15{fill:#FFFFFF;}
	.st16{fill:#EFB430;stroke:#621A40;stroke-width:7;stroke-miterlimit:10;}
	.st17{fill:#EFB430;}
	.st18{fill:#D6930D;}
	.st19{fill:#FCE7BE;}
	.st20{fill:none;stroke:#621A40;stroke-width:7;stroke-miterlimit:10;}
</style>
<g id="Body">
</g>
<g id="Head">
	<polygon id="Jumper" class="st0" points="369.7,506.7 205,570.2 40.3,506.7 4,343.4 203.4,318 406,343.4 	"/>
	<polygon id="Jumper_light" class="st1" points="59.8,335.6 99.6,430.5 200.8,489.5 83.4,446.3 	"/>
	<polygon id="Jumper_shadow_1_" class="st2" points="100.3,381.2 144.5,379.4 199.5,386.9 149.7,366.9 	"/>
	<polygon id="Jumper_shadow" class="st2" points="200.8,384.9 253.8,376.9 297.6,386.9 322.7,427.3 344.2,335.3 260.1,325.2 	"/>
	<g id="Shirt_1_">
		<polygon class="st3" points="242.4,324.3 257.5,318 301.8,379.8 251.3,367.8 199.5,384.9 244.1,356.2 		"/>
		<g>
			<g>
				<path class="st4" d="M254.5,365c8.5,2,16.7,4,24.8,5.9c4,1,8,1.9,11.9,2.9c0.8,0.2,1.6,0.4,2.4,0.6l0.1,0.1l0.4,0.1
					c0-0.1-0.1-0.2-0.1-0.3l-0.1-0.2c-0.5-0.7-1-1.5-1.5-2.2c-2.2-3.2-4.4-6.3-6.5-9.4c-4.2-6.1-8.2-11.8-11.8-17.1
					c-3.6-5.3-6.9-10.2-9.9-14.7c-1.5-2.2-2.9-4.3-4.2-6.3c-0.6-1-1.3-1.9-1.9-2.9l-0.2-0.3l-0.1-0.2l-0.2-0.4
					c-0.1-0.2-0.3-0.5-0.4-0.7c-0.3,0.1-0.6,0.2-1,0.3c-0.2,0.1-0.3,0.1-0.5,0.2c-0.3,0.1-0.6,0.2-0.8,0.3c-1.1,0.4-2.1,0.7-3.1,1.1
					c-1.9,0.7-3.6,1.2-4.9,1.6c-2.7,0.8-4.2,1.1-4.3,0.9c-0.1-0.3,1.1-1.1,3.6-2.4c1.2-0.7,2.8-1.4,4.6-2.3c0.9-0.4,1.9-0.9,2.9-1.4
					c0.3-0.1,0.5-0.3,0.8-0.4c0.4-0.2,0.8-0.4,1.2-0.5c0.8-0.4,1.7-0.8,2.6-1.2c2.7,3.5,5.9,7.6,9.4,12.2c3.2,4.3,6.8,9,10.7,14.1
					c3.9,5.2,8,10.8,12.4,16.7c2.2,3,4.5,6.1,6.8,9.2c4,5.5,8,11.1,12.2,16.8c-10.2-2.4-20.9-4.9-31.9-7.4c-8-1.9-16.3-3.8-24.8-5.8
					l-1.2-0.3l-0.2-0.1l0,0l0,0c-17.5,5.7-34.4,11.2-50.3,16.4c-0.6-1-1.2-2-2-2.8c-0.1-1.2-0.1-2.4,0.3-3.7c6-3.8,11.8-7.4,17.4-11
					c1.4-0.9,2.7-1.7,4-2.5c0.8-0.5,1.5-1,2.3-1.4c1.5-0.9,2.9-1.8,4.3-2.6c2.8-1.7,5.5-3.4,8.1-4.9c1.3-0.8,2.5-1.5,3.8-2.3
					c0.6-0.4,1.2-0.7,1.8-1.1c0.2-0.1,0.5-0.3,0.7-0.4c0-0.2,0-0.5,0-0.7c0-0.6,0-1.1,0-1.7c0-1.2,0-2.3-0.1-3.5
					c0-2.2-0.1-4.4-0.1-6.3c0-3.9,0-7.3,0-10.1c0.1-5.5,0.3-8.5,0.7-8.5s1,3,1.6,8.4c0.3,2.7,0.7,6.1,1.1,10c0.2,2,0.4,4.1,0.6,6.3
					c0.1,1.1,0.2,2.3,0.3,3.4c0.1,0.6,0.1,1.3,0.2,1.9c0.1,1,0.1,2,0.2,3c-4.8,3.3-10.2,6.9-16,10.9c-1.4,0.9-2.8,1.9-4.2,2.8
					c-0.7,0.5-1.3,0.9-2,1.4l-0.4,0.3c-0.5,0.4-0.8,0.7-1,0.9c-0.3,0.2-0.3,0.4-0.3,0.4c0.7-0.3,1.2-0.5,1.5-0.6
					c0.2-0.1,0.4-0.2,0.5-0.2l0.1,0l0,0l1-0.3c1.6-0.5,3.2-1.1,4.8-1.6c6.8-2.2,13.7-4.5,20.8-6.9
					C252.2,364.5,253.4,364.7,254.5,365z"/>
			</g>
		</g>
	</g>
	<polygon id="Shirt_light_1_" class="st5" points="281.4,352.5 283.4,365.5 260.5,368.5 300,379.2 	"/>
	<polygon id="Shirt_shadow_2_" class="st6" points="259.2,320.4 243.2,340.8 242.4,325.9 	"/>
	<g id="Shirt_seam">
		<g>
			<line class="st7" x1="256.4" y1="323.2" x2="258.1" y2="325.7"/>
			<line class="st8" x1="261.1" y1="330.1" x2="283.8" y2="363.8"/>
			<polyline class="st7" points="285.3,366.1 287,368.5 284.1,367.8 			"/>
			<line class="st9" x1="279" y1="366.4" x2="261.3" y2="361.6"/>
			<line class="st7" x1="258.7" y1="360.9" x2="255.8" y2="360.2"/>
		</g>
	</g>
	<polygon id="Shirt_shadow_1_" class="st6" points="244.9,355.3 252.4,367.8 212.2,379.2 	"/>
	<polygon id="Neck" class="st10" points="241.9,356.2 200.8,384.9 159.7,356.2 159.7,265.2 241.9,265.2 	"/>
	<path id="Neck_shadow_1_" class="st11" d="M174.5,330.2c0,0,3.2,10.8,44.7,14.3c0,13,0,18.2,0,18.2L202.1,384l39.8-27.9l0.5-31.9
		C242.4,324.3,213,345.6,174.5,330.2z"/>
	<polygon id="Neck_stroke" class="st12" points="241.9,356.2 200.8,384.9 159.7,356.2 159.7,265.2 241.9,265.2 	"/>
	<g id="Shirt">
		<polygon class="st3" points="158,324.3 142.8,318 98.5,379.8 149,367.8 200.8,384.9 156.3,356.2 		"/>
		<g>
			<g>
				<path class="st4" d="M147.4,371.8c-8.5,2-16.8,3.9-24.8,5.8c-11,2.6-21.7,5-31.9,7.4c4.2-5.7,8.2-11.4,12.2-16.8
					c2.3-3.1,4.6-6.2,6.8-9.2c4.4-5.9,8.6-11.5,12.4-16.7c3.9-5.1,7.5-9.9,10.7-14.1c3.6-4.6,6.7-8.7,9.4-12.2
					c0.9,0.4,1.7,0.8,2.6,1.2c0.4,0.2,0.8,0.4,1.2,0.5c0.3,0.1,0.5,0.3,0.8,0.4c1,0.5,2,1,2.9,1.4c1.8,0.9,3.4,1.7,4.6,2.3
					c2.5,1.3,3.7,2.2,3.6,2.4c-0.1,0.3-1.6,0-4.3-0.9c-1.3-0.4-3-0.9-4.9-1.6c-1-0.3-2-0.7-3.1-1.1c-0.3-0.1-0.6-0.2-0.8-0.3
					c-0.2-0.1-0.3-0.1-0.5-0.2c-0.3-0.1-0.6-0.2-1-0.3c-0.1,0.2-0.3,0.5-0.4,0.7l-0.2,0.4l-0.1,0.2l-0.2,0.3
					c-0.6,0.9-1.2,1.9-1.9,2.9c-1.3,2-2.7,4.1-4.2,6.3c-3,4.4-6.3,9.3-9.9,14.7c-3.7,5.3-7.6,11-11.8,17.1c-2.1,3-4.3,6.2-6.5,9.4
					c-0.5,0.7-1,1.5-1.5,2.2l-0.1,0.2c-0.1,0.1-0.1,0.2-0.1,0.3l0.4-0.1l0.1-0.1c0.8-0.2,1.6-0.4,2.4-0.6c3.9-0.9,7.8-1.9,11.9-2.9
					c8-1.9,16.3-3.9,24.8-5.9c1.1-0.3,2.3-0.5,3.4-0.8c7.1,2.3,14,4.6,20.8,6.9c1.6,0.5,3.2,1.1,4.8,1.6l1,0.3l0,0l0.1,0
					c0.1,0.1,0.3,0.1,0.5,0.2c0.3,0.1,0.8,0.4,1.5,0.6c0,0-0.1-0.2-0.3-0.4c-0.2-0.2-0.5-0.5-1-0.9l-0.4-0.3c-0.7-0.5-1.4-0.9-2-1.4
					c-1.4-1-2.8-1.9-4.2-2.8c-5.8-3.9-11.2-7.6-16-10.9c0.1-1,0.1-2,0.2-3c0.1-0.6,0.1-1.3,0.2-1.9c0.1-1.2,0.2-2.3,0.3-3.4
					c0.2-2.2,0.4-4.3,0.6-6.3c0.4-3.9,0.7-7.3,1.1-10c0.7-5.5,1.2-8.4,1.6-8.4c0.4,0,0.7,3,0.7,8.5c0,2.8,0,6.1,0,10.1
					c0,2-0.1,4.1-0.1,6.3c0,1.1,0,2.3-0.1,3.5c0,0.6,0,1.1,0,1.7c0,0.2,0,0.5,0,0.7c0.2,0.1,0.5,0.2,0.7,0.4
					c0.6,0.4,1.2,0.7,1.8,1.1c1.2,0.7,2.5,1.5,3.8,2.3c2.6,1.6,5.3,3.2,8.1,4.9c1.4,0.9,2.8,1.7,4.3,2.6c0.8,0.5,1.5,0.9,2.3,1.4
					c1.3,0.8,2.7,1.7,4,2.5c5.6,3.5,11.4,7.2,17.4,11c0.3,1.3,0.4,2.5,0.3,3.7c-0.8,0.8-1.5,1.8-2,2.8
					c-15.9-5.2-32.8-10.7-50.3-16.4l0,0v0l-0.2,0.1L147.4,371.8z"/>
			</g>
		</g>
	</g>
	<polygon id="Shirt_light" class="st5" points="118.9,352.5 117,365.5 139.9,368.5 100.3,379.2 	"/>
	<polygon id="Shirt_shadow" class="st6" points="141.1,320.4 157.1,340.8 157.9,325.9 	"/>
	<g id="Neck_shadow">
		<g>
			<g>
				<path class="st4" d="M198.9,355.4c0.5,1.6,1.3,2.9,2.4,3.9c1.1,1,2.3,1.6,3.4,2c2.2,0.7,3.8,0.5,4,1c0.1,0.2-0.3,0.6-1,0.9
					c-0.7,0.3-1.9,0.6-3.4,0.5c-1.5-0.1-3.3-0.7-4.9-1.9c-1.6-1.2-3.1-3.1-3.7-5.4c-0.6-2.3-0.4-4.7,0.3-6.6c0.8-1.9,2-3.3,3.2-4.2
					c1.2-0.9,2.4-1.3,3.2-1.4c0.8-0.1,1.3,0,1.3,0.2c0.2,0.5-1.4,1.2-2.9,3c-0.7,0.9-1.4,2-1.8,3.4
					C198.5,352.2,198.4,353.8,198.9,355.4z"/>
			</g>
		</g>
	</g>
	<path id="Neck_light" class="st13" d="M166.7,340.2v11.4l18.5,13.7c0.8,0.6,1.7-0.5,1-1.2l-15.2-14l-2.7-10.1
		C168,339.2,166.7,339.3,166.7,340.2z"/>
	<g id="Shirt_seam_1_">
		<g>
			<line class="st7" x1="143.9" y1="323.2" x2="142.3" y2="325.7"/>
			<line class="st8" x1="139.2" y1="330.1" x2="116.5" y2="363.8"/>
			<polyline class="st7" points="115,366.1 113.3,368.5 116.2,367.8 			"/>
			<line class="st9" x1="121.3" y1="366.4" x2="139.1" y2="361.6"/>
			<line class="st7" x1="141.6" y1="360.9" x2="144.5" y2="360.2"/>
		</g>
	</g>
	<polygon id="Short_shadow" class="st6" points="155.5,355.3 147.9,367.8 188.1,379.2 	"/>
	<g id="Shirt_stroke_1_">
		<g>
			<g>
				<path class="st4" d="M147.4,371.8c-8.5,2-16.8,3.9-24.8,5.8c-11,2.6-21.7,5-31.9,7.4c4.2-5.7,8.2-11.4,12.2-16.8
					c2.3-3.1,4.6-6.2,6.8-9.2c4.4-5.9,8.6-11.5,12.4-16.7c3.9-5.1,7.5-9.9,10.7-14.1c3.6-4.6,6.7-8.7,9.4-12.2
					c0.9,0.4,1.7,0.8,2.6,1.2c0.4,0.2,0.8,0.4,1.2,0.5c0.3,0.1,0.5,0.3,0.8,0.4c1,0.5,2,1,2.9,1.4c1.8,0.9,3.4,1.7,4.6,2.3
					c2.5,1.3,3.7,2.2,3.6,2.4c-0.1,0.3-1.6,0-4.3-0.9c-1.3-0.4-3-0.9-4.9-1.6c-1-0.3-2-0.7-3.1-1.1c-0.3-0.1-0.6-0.2-0.8-0.3
					c-0.2-0.1-0.3-0.1-0.5-0.2c-0.3-0.1-0.6-0.2-1-0.3c-0.1,0.2-0.3,0.5-0.4,0.7l-0.2,0.4l-0.1,0.2l-0.2,0.3
					c-0.6,0.9-1.2,1.9-1.9,2.9c-1.3,2-2.7,4.1-4.2,6.3c-3,4.4-6.3,9.3-9.9,14.7c-3.7,5.3-7.6,11-11.8,17.1c-2.1,3-4.3,6.2-6.5,9.4
					c-0.5,0.7-1,1.5-1.5,2.2l-0.1,0.2c-0.1,0.1-0.1,0.2-0.1,0.3l0.4-0.1l0.1-0.1c0.8-0.2,1.6-0.4,2.4-0.6c3.9-0.9,7.8-1.9,11.9-2.9
					c8-1.9,16.3-3.9,24.8-5.9c1.1-0.3,2.3-0.5,3.4-0.8c7.1,2.3,14,4.6,20.8,6.9c1.6,0.5,3.2,1.1,4.8,1.6l1,0.3l0,0l0.1,0
					c0.1,0.1,0.3,0.1,0.5,0.2c0.3,0.1,0.8,0.4,1.5,0.6c0,0-0.1-0.2-0.3-0.4c-0.2-0.2-0.5-0.5-1-0.9l-0.4-0.3c-0.7-0.5-1.4-0.9-2-1.4
					c-1.4-1-2.8-1.9-4.2-2.8c-5.8-3.9-11.2-7.6-16-10.9c0.1-1,0.1-2,0.2-3c0.1-0.6,0.1-1.3,0.2-1.9c0.1-1.2,0.2-2.3,0.3-3.4
					c0.2-2.2,0.4-4.3,0.6-6.3c0.4-3.9,0.7-7.3,1.1-10c0.7-5.5,1.2-8.4,1.6-8.4c0.4,0,0.7,3,0.7,8.5c0,2.8,0,6.1,0,10.1
					c0,2-0.1,4.1-0.1,6.3c0,1.1,0,2.3-0.1,3.5c0,0.6,0,1.1,0,1.7c0,0.2,0,0.5,0,0.7c0.2,0.1,0.5,0.2,0.7,0.4
					c0.6,0.4,1.2,0.7,1.8,1.1c1.2,0.7,2.5,1.5,3.8,2.3c2.6,1.6,5.3,3.2,8.1,4.9c1.4,0.9,2.8,1.7,4.3,2.6c0.8,0.5,1.5,0.9,2.3,1.4
					c1.3,0.8,2.7,1.7,4,2.5c5.6,3.5,11.4,7.2,17.4,11c0.3,1.3,0.4,2.5,0.3,3.7c-0.8,0.8-1.5,1.8-2,2.8
					c-15.9-5.2-32.8-10.7-50.3-16.4l0,0v0l-0.2,0.1L147.4,371.8z"/>
			</g>
		</g>
	</g>
	<g id="Shirt_stroke">
		<g>
			<g>
				<path class="st4" d="M254.5,365c8.5,2,16.7,4,24.8,5.9c4,1,8,1.9,11.9,2.9c0.8,0.2,1.6,0.4,2.4,0.6l0.1,0.1l0.4,0.1
					c0-0.1-0.1-0.2-0.1-0.3l-0.1-0.2c-0.5-0.7-1-1.5-1.5-2.2c-2.2-3.2-4.4-6.3-6.5-9.4c-4.2-6.1-8.2-11.8-11.8-17.1
					c-3.6-5.3-6.9-10.2-9.9-14.7c-1.5-2.2-2.9-4.3-4.2-6.3c-0.6-1-1.3-1.9-1.9-2.9l-0.2-0.3l-0.1-0.2l-0.2-0.4
					c-0.1-0.2-0.3-0.5-0.4-0.7c-0.3,0.1-0.6,0.2-1,0.3c-0.2,0.1-0.3,0.1-0.5,0.2c-0.3,0.1-0.6,0.2-0.8,0.3c-1.1,0.4-2.1,0.7-3.1,1.1
					c-1.9,0.7-3.6,1.2-4.9,1.6c-2.7,0.8-4.2,1.1-4.3,0.9c-0.1-0.3,1.1-1.1,3.6-2.4c1.2-0.7,2.8-1.4,4.6-2.3c0.9-0.4,1.9-0.9,2.9-1.4
					c0.3-0.1,0.5-0.3,0.8-0.4c0.4-0.2,0.8-0.4,1.2-0.5c0.8-0.4,1.7-0.8,2.6-1.2c2.7,3.5,5.9,7.6,9.4,12.2c3.2,4.3,6.8,9,10.7,14.1
					c3.9,5.2,8,10.8,12.4,16.7c2.2,3,4.5,6.1,6.8,9.2c4,5.5,8,11.1,12.2,16.8c-10.2-2.4-20.9-4.9-31.9-7.4c-8-1.9-16.3-3.8-24.8-5.8
					l-1.2-0.3l-0.2-0.1l0,0l0,0c-17.5,5.7-34.4,11.2-50.3,16.4c-0.6-1-1.2-2-2-2.8c-0.1-1.2-0.1-2.4,0.3-3.7c6-3.8,11.8-7.4,17.4-11
					c1.4-0.9,2.7-1.7,4-2.5c0.8-0.5,1.5-1,2.3-1.4c1.5-0.9,2.9-1.8,4.3-2.6c2.8-1.7,5.5-3.4,8.1-4.9c1.3-0.8,2.5-1.5,3.8-2.3
					c0.6-0.4,1.2-0.7,1.8-1.1c0.2-0.1,0.5-0.3,0.7-0.4c0-0.2,0-0.5,0-0.7c0-0.6,0-1.1,0-1.7c0-1.2,0-2.3-0.1-3.5
					c0-2.2-0.1-4.4-0.1-6.3c0-3.9,0-7.3,0-10.1c0.1-5.5,0.3-8.5,0.7-8.5s1,3,1.6,8.4c0.3,2.7,0.7,6.1,1.1,10c0.2,2,0.4,4.1,0.6,6.3
					c0.1,1.1,0.2,2.3,0.3,3.4c0.1,0.6,0.1,1.3,0.2,1.9c0.1,1,0.1,2,0.2,3c-4.8,3.3-10.2,6.9-16,10.9c-1.4,0.9-2.8,1.9-4.2,2.8
					c-0.7,0.5-1.3,0.9-2,1.4l-0.4,0.3c-0.5,0.4-0.8,0.7-1,0.9c-0.3,0.2-0.3,0.4-0.3,0.4c0.7-0.3,1.2-0.5,1.5-0.6
					c0.2-0.1,0.4-0.2,0.5-0.2l0.1,0l0,0l1-0.3c1.6-0.5,3.2-1.1,4.8-1.6c6.8-2.2,13.7-4.5,20.8-6.9
					C252.2,364.5,253.4,364.7,254.5,365z"/>
			</g>
		</g>
	</g>
	<g id="Ear_1_">
		<path class="st14" d="M98.4,190.4c-5.7-6.2-13.8-10.1-22.9-10.1c-17.1,0-31,13.9-31,31s13.9,31,31,31c7.2,0,13.8-2.4,19-6.5"/>
		<g>
			<g>
				<path class="st4" d="M39.4,208.3c0.4-5.8,2.5-11.3,5.3-15.9c2.9-4.6,6.8-8.4,11-11c4.2-2.6,8.8-4.2,13.1-4.8
					c1.1-0.1,2.1-0.2,3.2-0.3c1,0,2.1,0,3.1,0c2,0.1,3.9,0.3,5.7,0.7c3.6,0.8,6.6,2.1,9,3.5c2.4,1.5,4.3,3,5.7,4.4
					c2.7,2.9,3.4,5,2.9,5.4c-0.6,0.5-2.3-0.6-5.4-2.2c-3.1-1.5-7.6-3.5-13.3-3.9c-1.4-0.1-2.9-0.1-4.5,0c-0.8,0.1-1.5,0.2-2.3,0.3
					c-0.8,0.2-1.6,0.3-2.4,0.5c-3.2,0.8-6.4,2.2-9.4,4.3c-5.9,4.2-10.6,11.4-11.2,19.6c-0.3,4.1,0.3,8.2,1.7,11.8
					c1.3,3.7,3.6,6.8,6.1,9.4c5.1,5.2,11.7,7.7,17.4,8.2c5.7,0.6,10.5-0.6,13.8-1.6c3.3-1,5.2-1.8,5.7-1.2c0.4,0.5-0.7,2.5-3.8,4.9
					c-1.6,1.2-3.7,2.4-6.3,3.4c-2.7,1-5.9,1.8-9.5,1.9c-3.6,0.2-7.7-0.3-11.9-1.6c-4.1-1.4-8.3-3.7-12.1-7c-3.7-3.3-7-7.6-9-12.6
					C39.9,219.8,38.9,214,39.4,208.3z"/>
			</g>
		</g>
	</g>
	<path id="Ear_shadow_2_" class="st11" d="M83.7,182.9c0,0-1.7,53-7.3,57.1c-5.7,4.1,12,0,12,0L83.7,182.9z"/>
	<path id="Ear_light_1_" class="st13" d="M81.8,181c0,0-32.7,10.1-34.4,43.5C44.5,208.8,41.6,176.1,81.8,181z"/>
	<g id="Ear_stroke_2_">
		<g>
			<g>
				<path class="st4" d="M39.4,208.3c0.4-5.8,2.5-11.3,5.3-15.9c2.9-4.6,6.8-8.4,11-11c4.2-2.6,8.8-4.2,13.1-4.8
					c1.1-0.1,2.1-0.2,3.2-0.3c1,0,2.1,0,3.1,0c2,0.1,3.9,0.3,5.7,0.7c3.6,0.8,6.6,2.1,9,3.5c2.4,1.5,4.3,3,5.7,4.4
					c2.7,2.9,3.4,5,2.9,5.4c-0.6,0.5-2.3-0.6-5.4-2.2c-3.1-1.5-7.6-3.5-13.3-3.9c-1.4-0.1-2.9-0.1-4.5,0c-0.8,0.1-1.5,0.2-2.3,0.3
					c-0.8,0.2-1.6,0.3-2.4,0.5c-3.2,0.8-6.4,2.2-9.4,4.3c-5.9,4.2-10.6,11.4-11.2,19.6c-0.3,4.1,0.3,8.2,1.7,11.8
					c1.3,3.7,3.6,6.8,6.1,9.4c5.1,5.2,11.7,7.7,17.4,8.2c5.7,0.6,10.5-0.6,13.8-1.6c3.3-1,5.2-1.8,5.7-1.2c0.4,0.5-0.7,2.5-3.8,4.9
					c-1.6,1.2-3.7,2.4-6.3,3.4c-2.7,1-5.9,1.8-9.5,1.9c-3.6,0.2-7.7-0.3-11.9-1.6c-4.1-1.4-8.3-3.7-12.1-7c-3.7-3.3-7-7.6-9-12.6
					C39.9,219.8,38.9,214,39.4,208.3z"/>
			</g>
		</g>
	</g>
	<g id="Ear_shadow_1_">
		<g>
			<g>
				<path class="st4" d="M60,204.9c1.1-3.9,3.3-7.2,5.9-9.6c2.6-2.3,5.4-3.7,7.9-4.3c2.5-0.7,4.6-0.5,5.9-0.3
					c1.4,0.3,2.1,0.8,2.1,1.3c0,0.5-0.7,1-1.8,1.5c-1.1,0.6-2.7,1.2-4.4,2.2c-1.7,1-3.5,2.4-5.1,4.3c-1.6,1.9-3,4.2-3.7,6.9
					c-0.7,2.7-0.8,5.4-0.4,7.8c0.4,2.4,1.2,4.6,2.1,6.3c1.9,3.5,3.9,5.5,3.4,6.3c-0.2,0.4-1.1,0.5-2.4,0c-1.3-0.5-3.1-1.5-4.9-3.3
					c-1.8-1.8-3.5-4.5-4.5-7.8C59,212.8,58.9,208.9,60,204.9z"/>
			</g>
		</g>
	</g>
	<path id="Face" class="st10" d="M309.7,182.9c-0.9-20.6-2.3-62.1-4.3-88.8c-71.5-9.2-142.6-9.2-214,0
		c-5.6,74.3-4.8,112.3-1.8,183.3c0.3,7,3.9,13.6,9.7,17.5c26.1,17.5,51.7,28.8,81.8,38c11.3,3.5,23.3,3.5,34.6,0
		c30.1-9.2,55.7-20.5,81.7-38c5.8-3.9,9.4-10.4,9.7-17.5c1-22.2,3.5-41.1,3.6-58.9"/>
	<g id="Face_light_2_">
		<path class="st13" d="M87.2,199.1c0-0.3,0-0.5,0-0.5S87.2,198.9,87.2,199.1z"/>
		<path class="st13" d="M198.1,332.4c-45.3-9.1-79.1-37-90-46.9c-2.5-2.3-4.5-5-5.7-8.1c-13.7-32.9-15-73.5-15.1-78.2
			c0.1,6.2,1.6,75.3,2.4,84.3c0.4,3.9,1.7,5.4,5.2,7.5c0.9,2.3,3.7,5.2,9.5,8.6c4.8,2.9,11.5,6.1,19.2,9.5c0.6,0.5,1.3,1,2,1.5
			c-0.6-0.4-1.1-0.9-1.7-1.4C151.6,321.2,191.5,334.3,198.1,332.4z"/>
	</g>
	<path id="Eyebrow_shadow_1_" class="st11" d="M226.9,146.4c0,0,33.1-1,47.9,2c1.7,0.3,2.9-1.6,1.9-3c-3.4-4.7-5.9-7.2-11.4-7.8
		C258.3,136.9,226.9,146.4,226.9,146.4z"/>
	<g id="Ear">
		<path class="st14" d="M303.2,190.4c5.7-6.2,13.8-10.1,22.9-10.1c17.1,0,31,13.9,31,31s-13.9,31-31,31c-7.2,0-17.6-1.2-22.9-5.3"/>
		<g>
			<g>
				<path class="st4" d="M351.8,210.5c-0.2-4.2-1.2-8.3-3.1-11.8c-1.9-3.5-4.5-6.5-7.5-8.7c-2.9-2.3-6.2-3.8-9.5-4.7
					c-0.8-0.2-1.6-0.4-2.4-0.5c-0.8-0.2-1.6-0.2-2.4-0.3c-1.6-0.2-3.1-0.2-4.6-0.1c-2.9,0.1-5.6,0.8-7.9,1.5
					c-2.3,0.7-4.2,1.6-5.8,2.4c-3.2,1.6-4.9,2.8-5.5,2.2c-0.5-0.4,0.3-2.6,3-5.5c1.4-1.4,3.3-3,5.8-4.5c2.5-1.4,5.6-2.8,9.3-3.5
					c1.8-0.4,3.8-0.6,5.8-0.6c1,0,2.1-0.1,3.1,0.1c1.1,0.1,2.2,0.2,3.3,0.4c4.4,0.7,9,2.5,13.2,5.3c4.2,2.8,8,6.8,10.8,11.6
					c2.8,4.8,4.4,10.6,4.6,16.5c0.2,5.9-1.1,11.7-3.6,16.7c-2.5,5-6,9.2-10.1,12.3c-4,3.1-8.5,5.1-12.9,6.1
					c-0.5,0.1-1.1,0.2-1.6,0.3c-0.5,0.1-1.1,0.2-1.6,0.3c-1.1,0.1-2.1,0.2-3.1,0.3c-1,0-2,0-3,0c-1,0-1.8-0.1-2.7-0.2
					c-7-0.7-12.5-2.4-16-4.4c-1.8-1-3-2-3.7-2.8c-0.7-0.9-0.9-1.5-0.7-1.7c0.5-0.6,2.3,0.2,5.8,0.7c3.4,0.6,8.6,1.1,14.9,0.8
					c0.8,0,1.6-0.1,2.4-0.1c0.8-0.1,1.5-0.2,2.3-0.3c0.8-0.1,1.6-0.3,2.4-0.5c0.4-0.1,0.8-0.2,1.2-0.3c0.4-0.1,0.8-0.3,1.2-0.4
					c3.2-1.1,6.3-2.8,9.2-5.3c2.8-2.4,5.2-5.6,6.9-9.2C351.1,218.9,352,214.8,351.8,210.5z"/>
			</g>
		</g>
	</g>
	<path id="Face_shadow_1_" class="st11" d="M344.9,228.8c-1.3,0.7-2.7,1.4-4.1,1.9c-12.2,5-25.4,3.5-35.9-2.8l-10.2-5.8
		c-1.3-0.7-2.9,0.3-2.8,1.7l1.1,16.7v26.5c0,9.7-3,19.1-8.6,27c-4.2,5.9-9.6,12.6-15.5,17.5l35.6-21.8l5-48.4l8.1,0.4V240
		c7.3,2.7,12.2,0.7,20-2.5c3.5-1.4,6.7-3.4,9.4-5.9C348.6,230.3,346.8,227.8,344.9,228.8z"/>
	<path id="Face_shadow" class="st11" d="M111.1,92.4c0,0,34.3,23.4,87,22.1c32.7-0.8,51.2-4.9,60.4-7.8c5.6-1.8,11.7-0.1,15.5,4.3
		c9.7,10.9,25.5,34,29.7,72c4-18.4-7.3-82.1-7.3-82.1l-33.3-30.3L111.1,92.4z"/>
	<g id="Eyes">
		<g>
			<circle class="st4" cx="263.1" cy="184.9" r="12.6"/>
			<circle class="st15" cx="267.7" cy="181.9" r="4.6"/>
		</g>
		<g>
			<circle class="st4" cx="136.3" cy="184.9" r="12.6"/>
			<circle class="st15" cx="141" cy="181.9" r="4.6"/>
		</g>
	</g>
	<g id="Nose_1_">
		<g>
			<g>
				<path class="st4" d="M181.7,256.5c1.8,3.1,5.2,5.5,8.6,6.8c3.4,1.4,6.9,1.8,9.8,2c5.9,0.2,9.6-1,10.1-0.1
					c0.2,0.4-0.5,1.3-2.1,2.3c-1.6,1-4.2,2.1-7.6,2.7c-3.4,0.5-7.7,0.6-12.2-0.8c-2.3-0.7-4.6-1.7-6.8-3.2c-2.2-1.5-4.3-3.5-5.8-6.2
					c-1.5-2.7-2.2-5.8-1.9-8.8c0.3-3,1.5-5.6,3.1-7.7c3.2-4.1,7.3-6,10.6-7c3.4-0.9,6.2-1,8.1-0.7c1.9,0.3,2.9,0.7,2.9,1.2
					c0,0.5-1,0.9-2.6,1.5c-1.6,0.5-4,1.3-6.5,2.6c-2.5,1.3-5.3,3.3-7.1,6.1C180.3,250,179.9,253.4,181.7,256.5z"/>
			</g>
		</g>
	</g>
	<g id="Nose">
		<path class="st14" d="M200.8,142.9c0,0-9.5,73.1-2.2,94.1"/>
		<g>
			<g>
				<path class="st4" d="M193,189.8c1.5-26.2,5.9-47.1,7.8-46.9c1.9,0.2,0.7,21.4-0.8,47.3c-0.7,12.9-1.2,24.6-1.2,33
					c0,4.2,0.1,7.6,0.2,9.9c0,0.6,0,1.1,0,1.6c0,0.5,0,0.8,0,1.2c0,0.7-0.2,1-0.4,1.1c-0.2,0.1-0.5-0.2-0.9-0.7
					c-0.2-0.3-0.4-0.6-0.7-1.1c-0.2-0.4-0.4-0.9-0.7-1.5c-0.9-2.3-1.8-5.8-2.5-10.1C192.5,214.9,192.2,202.9,193,189.8z"/>
			</g>
		</g>
	</g>
	<g id="Mouth_1_">
		<g>
			<g>
				<path class="st4" d="M225.3,296.5c4-1.5,7.6-3.5,10.6-5.6c0.7-0.6,1.4-1.1,2.1-1.7c0.3-0.3,0.7-0.5,1-0.8
					c0.3-0.3,0.6-0.6,0.9-0.9c0.6-0.6,1.2-1.1,1.8-1.6c0.5-0.6,1-1.1,1.5-1.7c1-1,1.8-2.1,2.5-3c0.4-0.5,0.7-0.9,1-1.3
					c0.3-0.4,0.6-0.8,0.8-1.1c1-1.3,1.8-2,2.3-1.9c0.5,0.2,0.5,1.2,0.2,3c-0.1,0.4-0.2,0.9-0.3,1.5c-0.2,0.5-0.4,1.1-0.6,1.7
					c-0.5,1.2-1,2.6-1.9,4c-0.4,0.7-0.9,1.4-1.3,2.2c-0.5,0.7-1.1,1.4-1.7,2.2c-0.3,0.4-0.6,0.8-0.9,1.2c-0.3,0.4-0.7,0.7-1.1,1.1
					c-0.7,0.7-1.5,1.5-2.3,2.2c-3.3,2.8-7.5,5.3-12.2,7.1c-4.7,1.8-9.5,2.5-13.8,2.7c-1.1,0-2.1,0.1-3.1,0c-1-0.1-2-0.2-2.9-0.3
					c-0.5-0.1-0.9-0.1-1.4-0.1c-0.4-0.1-0.9-0.2-1.3-0.3c-0.9-0.2-1.7-0.4-2.5-0.5c-3.1-0.9-5.5-1.8-7-2.8c-1.5-0.9-2.3-1.6-2.1-2.1
					c0.2-0.5,1.2-0.6,2.9-0.5c1.7,0.2,4.1,0.3,7,0.5c0.7,0,1.5,0,2.3,0.1c0.4,0,0.8,0,1.2,0c0.4,0,0.8,0,1.2-0.1
					c0.8,0,1.7-0.1,2.6-0.1c0.9-0.1,1.8-0.2,2.7-0.3C217.3,298.8,221.4,298,225.3,296.5z"/>
			</g>
		</g>
	</g>
	<g id="Mouth_shadow">
		<g>
			<g>
				<path class="st11" d="M224.7,310.3c2.2-0.4,4.3-1.1,6.1-1.9c0.4-0.2,0.9-0.4,1.3-0.6c0.4-0.2,0.8-0.4,1.2-0.6
					c0.4-0.2,0.8-0.4,1.1-0.6c0.3-0.2,0.7-0.5,1-0.7c2.6-1.7,4.3-3.2,5.2-2.7c0.4,0.2,0.5,0.9,0.3,2c-0.1,0.3-0.1,0.6-0.2,0.9
					c-0.1,0.3-0.3,0.6-0.4,1c-0.3,0.7-0.7,1.5-1.3,2.3c-0.3,0.4-0.6,0.8-0.9,1.2c-0.4,0.4-0.8,0.8-1.2,1.2c-0.4,0.4-0.9,0.8-1.4,1.2
					c-0.5,0.4-1,0.8-1.5,1.1c-2.2,1.4-4.9,2.5-7.9,3.1c-3,0.6-5.9,0.5-8.4,0.1c-2.5-0.4-4.7-1.2-6.4-2.1c-1.7-0.9-2.9-1.8-3.6-2.7
					c-0.7-0.8-1-1.5-0.7-1.9c0.2-0.4,0.9-0.6,1.9-0.5c1,0.1,2.4,0.2,3.9,0.4C216,310.9,220.3,311.3,224.7,310.3z"/>
			</g>
		</g>
	</g>
	<g id="Mouth">
		<g>
			<g>
				<path class="st4" d="M249.1,277.8c-0.9-0.9-1.8-1.5-2.6-2c-0.8-0.5-1.4-0.9-1.4-1.4c0-0.5,0.7-1,2-1c1.3,0,3.1,0.5,4.6,2
					c1.4,1.4,2,3.3,2,4.6c0,1.3-0.5,2-1,2c-0.5,0-0.9-0.6-1.4-1.4C250.6,279.7,250,278.7,249.1,277.8z"/>
			</g>
		</g>
	</g>
	<path id="Eyebrow_shadow" class="st11" d="M113.3,150.4l-0.8,1.5c-0.7,1.2,0.3,2.7,1.7,2.7l50.4-1.5L113.3,150.4z"/>
	<g id="Eyebrow_1_">
		<path class="st4" d="M164.6,153.1l-56.8-1.7c-2.5-0.1-3.2-1.8-1.1-2.4l14.4-4.6c2.1-0.6,4.7-0.7,6.8-0.1l38,6.4
			C168.3,151.3,167.3,153.2,164.6,153.1z"/>
	</g>
	<g id="Eyebrow">
		<g>
			<path class="st4" d="M226.9,146.4c19.9-6.5,37.6-7,57.9-1.9c2.5,0.8,3.9-0.5,1.9-1.9c-5.3-3.9-8.1-5.6-14.2-8.6
				c-2.2-1-5.2-1.5-7.7-1.1c-14.6,1.5-26.9,5-40.1,11.6C222.6,146.1,224.3,147.4,226.9,146.4z"/>
		</g>
	</g>
	<path id="Face_light_1_" class="st13" d="M106.3,99.4c0,0-15.3,84.8-17.9,113c-2.3-30.5-1.2-35.2-1.2-35.2l9.9-70.4L106.3,99.4z"/>
	<path id="Hair" class="st16" d="M307.2,184.9l-10.7-78c0,0-17.1-5.7-25.1-16.7l-157.3,0.3c-8,11-17,16.3-17,16.3l-11,75l-7.1-1.5
		v-72.9c0-53.3,53.4-96.6,119.3-96.6s119.3,43.2,119.3,96.6l-0.8,73.9L307.2,184.9z"/>
	<g id="Front_hair">
		<path class="st17" d="M296.4,86.2c0,0-142.3,28-196.7,0"/>
		<g>
			<g>
				<path class="st4" d="M197.5,94.6c27.3-1.3,52-4.1,69.8-6c17.9-2,28.9-3.3,29.1-2.4c0.2,0.9-10.6,4-28.4,7.2
					c-17.8,3.2-42.6,6.8-70.2,8.1c-27.6,1.4-52.9-0.2-70.8-4.2c-1.1-0.3-2.2-0.5-3.3-0.7c-1.1-0.3-2.1-0.6-3.1-0.8
					c-2-0.6-3.9-1-5.6-1.7c-1.7-0.6-3.3-1.2-4.8-1.7c-1.4-0.6-2.7-1.2-3.9-1.8c-0.6-0.3-1.1-0.5-1.6-0.8c-0.5-0.3-1-0.6-1.4-0.8
					c-0.8-0.5-1.6-1-2.1-1.3c-1.1-0.8-1.6-1.3-1.5-1.5s0.9-0.1,2.1,0.2c0.6,0.2,1.4,0.4,2.3,0.7c0.5,0.1,0.9,0.3,1.5,0.5
					c0.5,0.1,1.1,0.3,1.7,0.5c1.2,0.3,2.5,0.7,4,1.1c1.5,0.3,3.1,0.7,4.8,1.1c1.7,0.5,3.6,0.7,5.5,1.1c1,0.2,2,0.4,3,0.6
					c1,0.2,2.1,0.3,3.2,0.5C145.4,95.2,170.2,96,197.5,94.6z"/>
			</g>
		</g>
	</g>
	<g id="Hair_shadow_2_">
		<g>
			<g>
				<path class="st18" d="M151,96.3c-3-1.7-4.8-4.3-5.7-6.2c-0.8-2-0.8-3.4-0.4-3.5c0.5-0.2,1.2,0.8,2.5,2.2c1.2,1.4,3,3.2,5.3,4.5
					c2.3,1.3,4.7,1.8,6.6,2c0.2,0,0.5,0.1,0.7,0.1c0.2,0,0.4,0,0.6,0.1c0.4,0,0.7,0.1,1,0.2c0.6,0.1,0.9,0.3,1,0.6
					c0,0.2-0.2,0.5-0.7,0.8c-0.3,0.1-0.6,0.3-1,0.4c-0.2,0.1-0.4,0.2-0.6,0.2c-0.2,0-0.5,0.1-0.8,0.1c-0.5,0.1-1.1,0.2-1.8,0.2
					c-0.6,0-1.3,0-2.1-0.1c-0.7-0.2-1.5-0.3-2.2-0.5C152.6,97,151.8,96.7,151,96.3z"/>
			</g>
		</g>
	</g>
	<g id="Hair_shadow_1_">
		<g>
			<g>
				<path class="st18" d="M198.1,96.3c-3-1.7-4.8-4.3-5.7-6.2c-0.8-2-0.8-3.4-0.4-3.5c0.5-0.2,1.2,0.8,2.5,2.2
					c1.2,1.4,3,3.2,5.3,4.5c2.3,1.3,4.7,1.8,6.6,2c0.2,0,0.5,0.1,0.7,0.1c0.2,0,0.4,0,0.6,0.1c0.4,0,0.7,0.1,1,0.2
					c0.6,0.1,0.9,0.3,1,0.6c0,0.2-0.2,0.5-0.7,0.8c-0.3,0.1-0.6,0.3-1,0.4c-0.2,0.1-0.4,0.2-0.6,0.2c-0.2,0-0.5,0.1-0.8,0.1
					c-0.5,0.1-1.1,0.2-1.8,0.2c-0.6,0-1.3,0-2.1-0.1c-0.7-0.2-1.5-0.3-2.2-0.5C199.6,97,198.8,96.7,198.1,96.3z"/>
			</g>
		</g>
	</g>
	<path id="Ear_light" class="st13" d="M310.7,184.9c0,0,27.7,2.9,45.3,18.1c-3.2-9.1-13.6-19.6-19.9-21
		C329.9,180.6,310.7,184.9,310.7,184.9z"/>
	<g id="Ear_stroke">
		<g>
			<g>
				<path class="st4" d="M333.9,203.1c-1.5-1.4-3-2.6-4.5-3.6c-0.4-0.2-0.8-0.5-1.1-0.7c-0.4-0.2-0.7-0.4-1.1-0.6
					c-0.7-0.4-1.4-0.7-2.1-1.1c-2.6-1.2-4.5-2-4.5-3c0-0.5,0.5-0.9,1.5-1.3c0.5-0.2,1.1-0.4,1.8-0.4c0.7-0.1,1.5-0.2,2.4-0.1
					c0.9,0.1,1.9,0.1,2.9,0.4c0.5,0.1,1.1,0.2,1.6,0.4c0.5,0.2,1.1,0.4,1.6,0.6c2.2,1,4.5,2.4,6.5,4.4c2,2,3.4,4.3,4.4,6.5
					c0.2,0.6,0.4,1.1,0.6,1.6c0.2,0.5,0.3,1.1,0.4,1.6c0.3,1,0.4,2,0.4,2.9c0.1,0.9,0,1.7-0.1,2.4c-0.1,0.7-0.2,1.3-0.4,1.8
					c-0.4,1-0.8,1.5-1.3,1.5c-1,0-1.8-1.9-3-4.5c-0.3-0.6-0.6-1.3-1.1-2.1c-0.2-0.4-0.4-0.7-0.6-1.1c-0.2-0.4-0.5-0.7-0.7-1.1
					C336.5,206.1,335.3,204.5,333.9,203.1z"/>
			</g>
		</g>
	</g>
	<g id="Ear_shadow">
		<g>
			<g>
				<path class="st11" d="M324.8,216.3c1.3,0.9,2.6,1.6,3.8,2.1c0.6,0.3,1.2,0.6,1.8,0.7c0.6,0.3,1.2,0.4,1.7,0.6
					c2.1,0.7,3.8,1.2,4,2.2c0.1,0.5-0.2,1-0.9,1.5c-0.4,0.3-0.8,0.5-1.3,0.7c-0.5,0.2-1.2,0.4-1.9,0.5c-0.7,0.1-1.5,0.2-2.4,0.2
					c-0.9,0-1.8-0.1-2.8-0.3c-1.9-0.4-4-1.2-5.9-2.5c-1.9-1.3-3.4-3-4.5-4.6c-0.5-0.8-1-1.7-1.3-2.5c-0.4-0.8-0.5-1.6-0.7-2.3
					c-0.2-0.7-0.2-1.4-0.2-2c0-0.6,0.1-1.1,0.2-1.5c0.2-0.8,0.6-1.3,1.1-1.4c1-0.2,2,1.2,3.5,2.9c0.4,0.4,0.7,0.9,1.2,1.4
					c0.4,0.5,0.9,0.9,1.4,1.4C322.4,214.4,323.6,215.4,324.8,216.3z"/>
			</g>
		</g>
	</g>
	<g id="Top_hair_1_">
		<path class="st17" d="M240.1,16.9c0,0-91.5-33.3-124,4.9c-7.6,10.2-9,33.8-9,33.8"/>
		<g>
			<g>
				<path class="st4" d="M158.4,0.3c5.9-0.4,11.6-0.4,17.1-0.1c5.5,0.3,10.8,1,15.7,1.7c5,0.8,9.7,1.7,14,2.7c4.3,1,8.4,2,12,3.1
					c14.6,4.2,23,8.3,22.7,9.2c-0.3,0.9-9.3-1.5-23.9-4.4c-3.6-0.7-7.7-1.5-12-2.2c-4.3-0.7-8.9-1.4-13.8-2c-4.9-0.5-10-1-15.2-1.2
					C170,6.9,164.5,6.9,159,7.3c-5.5,0.4-10.9,1.2-15.8,2.5c-5,1.3-9.6,3-13.7,5.2c-1.1,0.5-2,1.2-2.9,1.8c-0.9,0.6-1.9,1.2-2.7,1.9
					c-0.9,0.7-1.7,1.4-2.5,2c-0.7,0.7-1.5,1.4-2.2,2.2c-2.6,2.7-4.1,6.4-5.4,9.7c-1.3,3.4-2.1,6.6-2.9,9.4c-0.7,2.8-1.3,5.3-1.7,7.4
					c-0.9,4.1-1.5,6.3-2,6.3c-0.5,0-0.8-2.4-0.7-6.7c0-2.1,0.2-4.7,0.6-7.7c0.4-3,0.9-6.4,2-10.2c0.3-0.9,0.6-1.9,0.9-2.9
					c0.3-1,0.7-2,1.1-3c0.5-1,0.9-2,1.5-3.1c0.6-1,1.3-2.2,2.1-3c0.8-0.9,1.6-1.8,2.5-2.7c0.9-0.8,1.8-1.6,2.8-2.5
					c0.9-0.9,2-1.6,3-2.3c1.1-0.7,2.1-1.5,3.3-2.1c4.5-2.8,9.7-4.8,15.1-6.3C146.8,1.7,152.6,0.7,158.4,0.3z"/>
			</g>
		</g>
	</g>
	<g id="Top_hair">
		<path class="st17" d="M283.2,43.6c0,0-40.4-45.9-69.8-34.7c-7.3,3.3-15.1,15.9-15.1,15.9"/>
		<g>
			<g>
				<path class="st4" d="M243.8,8.7c6.9,3.2,12.8,7.1,17.8,11c5,3.9,9.2,7.8,12.5,11.3c6.6,6.9,9.8,12,9.1,12.6
					c-0.7,0.6-5.2-3.1-12.4-9c-3.6-2.9-8-6.3-13-9.8c-5-3.5-10.7-7-16.9-9.8c-3.1-1.4-6.2-2.5-9.2-3.3c-3-0.8-6-1.3-8.8-1.3
					c-0.7-0.1-1.4,0-2.1,0.1c-0.7,0-1.4,0-2,0.2c-0.6,0.1-1.3,0.2-1.9,0.3c-0.6,0.2-1.2,0.3-1.7,0.5c-2,0.5-3.9,2-5.6,3.4
					c-1.7,1.4-3.2,2.8-4.5,4.1c-1.3,1.3-2.4,2.4-3.3,3.4c-1.9,1.9-3,2.8-3.4,2.6c-0.4-0.3,0-1.8,1.2-4.2c0.6-1.2,1.4-2.6,2.5-4.3
					c1.1-1.6,2.4-3.4,4.1-5.2c0.4-0.5,0.9-0.9,1.4-1.4c0.5-0.5,1-0.9,1.6-1.4c0.6-0.4,1.2-0.9,1.9-1.3c0.7-0.4,1.5-0.9,2.2-1.1
					c0.7-0.3,1.5-0.5,2.3-0.8c0.8-0.2,1.6-0.4,2.4-0.6c0.8-0.2,1.6-0.3,2.5-0.4c0.8-0.1,1.7-0.2,2.5-0.2c3.4-0.2,7,0.2,10.6,1.1
					C236.9,5.9,240.4,7.1,243.8,8.7z"/>
			</g>
		</g>
	</g>
	<path id="Hair_shadow" class="st18" d="M291.1,45.1c0,0-35.7,50.8-78.4,51c48.8-2.7,61.6-3.7,61.6-3.7s15.4,13.9,24.2,14.4
		c1.2,8.9,11.7,75,11.7,75l8.6-3.5C318.9,178.3,332.2,71,291.1,45.1z"/>
	<path id="Face_stroke" class="st12" d="M87.2,175.2c-0.1,27.8,0.8,66.5,2.4,102.1c0.3,7,3.9,13.6,9.7,17.5
		c26.1,17.5,51.7,28.8,81.8,38c11.3,3.5,23.3,3.5,34.6,0c30.1-9.2,55.7-20.5,81.7-38c5.8-3.9,9.4-10.4,9.7-17.5
		c0.6-13.4,1.7-25.7,2.6-37.2"/>
	<path id="Nose_shadow" class="st11" d="M207,259.1c-7.1,1.8-14.2-0.1-19.5-4.4c-0.9-0.7-2.1,0.5-1.4,1.4c4.2,5.5,11.5,8.2,18.6,6.5
		c2.1-0.5,3.9-1.4,5.6-2.5c1-0.7,0.2-2.2-0.9-1.7C208.6,258.6,207.8,258.9,207,259.1z"/>
	
		<ellipse id="Nose_light_1_" transform="matrix(0.9711 -0.2386 0.2386 0.9711 -52.6441 53.7775)" class="st13" cx="195.8" cy="244.4" rx="9.8" ry="3.8"/>
	<path id="Nose_light" class="st13" d="M203.2,151.7l-2.4,79.8c0,0.8,0.4,1.5,1.1,1.8l0.6,0.3c1.3,0.6,2.8-0.4,2.8-1.8L203.2,151.7z
		"/>
	<g id="Ear_stroke_1_">
		<g>
			<g>
				<path class="st4" d="M351.8,210.5c-0.2-4.2-1.2-8.3-3.1-11.8c-1.9-3.5-4.5-6.5-7.5-8.7c-2.9-2.3-6.2-3.8-9.5-4.7
					c-0.8-0.2-1.6-0.4-2.4-0.5c-0.8-0.2-1.6-0.2-2.4-0.3c-1.6-0.2-3.1-0.2-4.6-0.1c-2.9,0.1-5.6,0.8-7.9,1.5
					c-2.3,0.7-4.2,1.6-5.8,2.4c-3.2,1.6-4.9,2.8-5.5,2.2c-0.5-0.4,0.3-2.6,3-5.5c1.4-1.4,3.3-3,5.8-4.5c2.5-1.4,5.6-2.8,9.3-3.5
					c1.8-0.4,3.8-0.6,5.8-0.6c1,0,2.1-0.1,3.1,0.1c1.1,0.1,2.2,0.2,3.3,0.4c4.4,0.7,9,2.5,13.2,5.3c4.2,2.8,8,6.8,10.8,11.6
					c2.8,4.8,4.4,10.6,4.6,16.5c0.2,5.9-1.1,11.7-3.6,16.7c-2.5,5-6,9.2-10.1,12.3c-4,3.1-8.5,5.1-12.9,6.1
					c-0.5,0.1-1.1,0.2-1.6,0.3c-0.5,0.1-1.1,0.2-1.6,0.3c-1.1,0.1-2.1,0.2-3.1,0.3c-1,0-2,0-3,0c-1,0-1.8-0.1-2.7-0.2
					c-7-0.7-12.5-2.4-16-4.4c-1.8-1-3-2-3.7-2.8c-0.7-0.9-0.9-1.5-0.7-1.7c0.5-0.6,2.3,0.2,5.8,0.7c3.4,0.6,8.6,1.1,14.9,0.8
					c0.8,0,1.6-0.1,2.4-0.1c0.8-0.1,1.5-0.2,2.3-0.3c0.8-0.1,1.6-0.3,2.4-0.5c0.4-0.1,0.8-0.2,1.2-0.3c0.4-0.1,0.8-0.3,1.2-0.4
					c3.2-1.1,6.3-2.8,9.2-5.3c2.8-2.4,5.2-5.6,6.9-9.2C351.1,218.9,352,214.8,351.8,210.5z"/>
			</g>
		</g>
	</g>
	<path id="Eye_shadow_1_" class="st11" d="M264.3,206.1c-3.3,0-6.5-0.5-9.4-1.4c-1.2-0.4-2,1.3-1,2c2.7,1.9,6.3,3.1,10.4,3.1
		c4,0,7.7-1.2,10.4-3.1c1.1-0.8,0.2-2.4-1-2C270.8,205.6,267.6,206.1,264.3,206.1z"/>
	<path id="Eye_shadow" class="st11" d="M136.3,206.1c-3.3,0-6.5-0.5-9.4-1.4c-1.2-0.4-2,1.3-1,2c2.7,1.9,6.3,3.1,10.4,3.1
		s7.7-1.2,10.4-3.1c1.1-0.8,0.2-2.4-1-2C142.8,205.6,139.6,206.1,136.3,206.1z"/>
	<path id="Face_light" class="st13" d="M102.9,261.6c3.1,8.5,10.3,24.7,23.3,34c0.7,0.5,1.6-0.4,1.1-1.1c-6.7-8.6-17.6-25.2-23-33.6
		C103.7,260.2,102.6,260.7,102.9,261.6z"/>
	<path id="Hair_light" class="st19" d="M181.8,11.3c0.4-0.1,0.4-0.7,0-0.7c-12.5-0.4-46.8-0.1-58.4,14.8
		c-8.1,10.4-10.8,17.6-11.6,21.8c-0.3,1.5,1.6,2.3,2.6,1.2C121.6,39.3,143.9,16,181.8,11.3z"/>
	<g id="Hair_light_2_">
		<g>
			<g>
				<path class="st19" d="M85.5,94.7c1.7-8.7,4.6-16.4,7.3-21.6c2.7-5.2,5.2-8,5.6-7.7c0.4,0.3-1.3,3.4-3.3,8.7
					c-2.1,5.3-4.5,12.8-6.2,21.2c-3.4,17-3,31.3-4.2,31.3c-0.2,0-0.5-0.9-0.7-2.5c-0.1-0.8-0.2-1.8-0.3-2.9c0-0.6-0.1-1.2-0.2-1.8
					c0-0.7,0-1.3-0.1-2.1c0-1.5,0-3,0-4.8c0.1-1.7,0.2-3.5,0.3-5.5C84.1,103.3,84.6,99.1,85.5,94.7z"/>
			</g>
		</g>
	</g>
	<path id="Hair_light_1_" class="st19" d="M254,28.2c0.7,0.3,1.2-0.6,0.6-1.1c-6.1-5-21.1-15.4-36.1-13.1
		c-7.7,1.4-11.1,5.5-12.4,7.6c-0.3,0.5,0.2,1.1,0.7,0.9C211.5,21.3,227.9,18.2,254,28.2z"/>
	<g id="Hair_1_">
		<g>
			<g>
				<g>
					<path class="st4" d="M279.6,24.3c-2.3,1.5-4.2,3.3-5.7,4.6c-1.5,1.3-2.4,2.1-2.9,1.8c-0.4-0.2-0.1-1.6,0.9-3.4
						c1.1-1.8,2.9-4.2,5.7-6c1.4-0.9,3-1.5,4.5-1.8c1.5-0.3,2.9-0.2,4,0.1c2.2,0.6,3.1,1.8,2.9,2.1c-0.2,0.5-1.5,0.2-3.2,0.3
						C284.1,22.2,281.9,22.8,279.6,24.3z"/>
				</g>
			</g>
		</g>
		<g>
			<g>
				<g>
					<path class="st4" d="M271.6,17.3c1.3,3.1,1.4,6.1,1.3,8.2c-0.2,2.1-0.7,3.3-1.2,3.3c-0.5,0-0.8-1.3-1.3-3.2c-0.4-1.9-1-4.5-2-7
						c-1-2.6-2.5-4.4-3.9-5.4c-1.4-1.1-2.6-1.6-2.5-2.1c0-0.4,1.5-0.8,3.6-0.1c1.1,0.4,2.3,1.1,3.4,2.2
						C270,14.4,270.9,15.8,271.6,17.3z"/>
				</g>
			</g>
		</g>
	</g>
	<g id="Hair_stroke_1_">
		<path class="st20" d="M281.9,38.5c22.1,17.5,35.7,41.9,35.7,68.9l-0.8,73.9l-9.6,3.6l-10.7-78c0,0-17.1-5.7-25.1-16.7"/>
		<path class="st20" d="M97.1,106.8l-11,75l-7.1-1.5v-72.9c0-23.7,10.6-45.5,28.1-62.3"/>
		<g id="Hair_stroke">
			<g>
				<g>
					<path class="st4" d="M197.5,94.6c27.3-1.3,52-4.1,69.8-6c17.9-2,28.9-3.3,29.1-2.4c0.2,0.9-10.6,4-28.4,7.2
						c-17.8,3.2-42.6,6.8-70.2,8.1c-27.6,1.4-52.9-0.2-70.8-4.2c-1.1-0.3-2.2-0.5-3.3-0.7c-1.1-0.3-2.1-0.6-3.1-0.8
						c-2-0.6-3.9-1-5.6-1.7c-1.7-0.6-3.3-1.2-4.8-1.7c-1.4-0.6-2.7-1.2-3.9-1.8c-0.6-0.3-1.1-0.5-1.6-0.8c-0.5-0.3-1-0.6-1.4-0.8
						c-0.8-0.5-1.6-1-2.1-1.3c-1.1-0.8-1.6-1.3-1.5-1.5s0.9-0.1,2.1,0.2c0.6,0.2,1.4,0.4,2.3,0.7c0.5,0.1,0.9,0.3,1.5,0.5
						c0.5,0.1,1.1,0.3,1.7,0.5c1.2,0.3,2.5,0.7,4,1.1c1.5,0.3,3.1,0.7,4.8,1.1c1.7,0.5,3.6,0.7,5.5,1.1c1,0.2,2,0.4,3,0.6
						c1,0.2,2.1,0.3,3.2,0.5C145.4,95.2,170.2,96,197.5,94.6z"/>
				</g>
			</g>
		</g>
		<g>
			<g>
				<g>
					<path class="st4" d="M149,93.7c2.3,1.5,4.8,2.4,6.6,3.2c1.8,0.8,2.9,1.3,2.9,1.8c0,0.5-1.4,0.8-3.5,0.6c-2.1-0.2-5-0.8-7.9-2.6
						c-1.4-0.9-2.7-2-3.6-3.2c-0.9-1.2-1.4-2.6-1.6-3.7c-0.4-2.3,0.2-3.6,0.7-3.6c0.5,0,0.8,1.2,1.7,2.8
						C145.2,90.5,146.7,92.3,149,93.7z"/>
				</g>
			</g>
		</g>
		<g>
			<g>
				<g>
					<path class="st4" d="M197.4,94.7c2.3,1.5,4.8,2.4,6.6,3.2c1.8,0.8,2.9,1.3,2.9,1.8c0,0.5-1.4,0.8-3.5,0.6
						c-2.1-0.2-5-0.8-7.9-2.6c-1.4-0.9-2.7-2-3.6-3.2c-0.9-1.2-1.4-2.6-1.6-3.7c-0.4-2.3,0.2-3.6,0.7-3.6c0.5,0,0.8,1.2,1.7,2.8
						C193.5,91.5,195,93.3,197.4,94.7z"/>
				</g>
			</g>
		</g>
	</g>
</g>
</svg>
