<?xml version="1.0" encoding="utf-8"?>
<!-- Generator: Adobe Illustrator 19.0.1, SVG Export Plug-In . SVG Version: 6.00 Build 0)  -->
<svg version="1.1" id="Layer_1" xmlns="http://www.w3.org/2000/svg" xmlns:xlink="http://www.w3.org/1999/xlink" x="0px" y="0px"
	 viewBox="0 0 16.9 10.4" enable-background="new 0 0 16.9 10.4" xml:space="preserve">
<g>
	<polygon fill="#01384D" points="10.3,10.4 2.6,10.4 0,9.8 2.1,6.7 0.5,7.2 0.6,6 	"/>
	<polygon fill="#024C68" points="0,4 3.1,5.2 2.8,3 4.7,3.6 10.3,10.4 0.6,6 	"/>
	<polygon fill="#026C91" points="0,1.1 2.4,0.7 4.7,3.6 2.8,3 	"/>
	<polygon fill="#7BB6E3" points="1.6,0 2.4,0.7 0,1.1 	"/>
	<polygon fill="#3B89B7" points="7.6,0 8.9,5.2 4.7,3.6 1.6,0 	"/>
	<polygon fill="#146389" points="10.3,10.4 4.7,3.6 8.9,5.2 	"/>
	<polygon fill="#226D92" points="11.5,1.9 13.2,6.4 8.9,5.2 7.6,0 	"/>
	<polygon fill="#014C66" points="13.7,7.6 10.3,10.4 8.9,5.2 13.2,6.4 16.9,7.8 	"/>
	<polygon fill="#7FB6E2" points="14.3,6.4 16.9,7.8 13.2,6.4 12.3,4 	"/>
	<polygon fill="#003F58" points="14.1,8.2 12.3,8.7 13.7,7.6 16.9,7.8 	"/>
</g>
</svg>
