<?xml version="1.0" encoding="utf-8"?>
<!-- Generator: Adobe Illustrator 19.0.1, SVG Export Plug-In . SVG Version: 6.00 Build 0)  -->
<svg version="1.1" id="Layer_1" xmlns="http://www.w3.org/2000/svg" xmlns:xlink="http://www.w3.org/1999/xlink" x="0px" y="0px"
	 viewBox="0 0 114.6 196" enable-background="new 0 0 114.6 196" xml:space="preserve">
<polygon fill="none" stroke="#FFFFFF" stroke-width="4" stroke-miterlimit="10" points="2,73.7 2,163 38.2,194 74.2,194 110.2,163 
	110.2,73.7 "/>
<path fill="none" stroke="#FFFFFF" stroke-width="4" stroke-miterlimit="10" d="M2,73.7c0,0,3.2-40,23.2-42.5s44-9.5,49-16
	s8.5-12,8.5-12s40,39.5,27.5,70.5"/>
<polygon stroke="#FFFFFF" stroke-width="2" stroke-miterlimit="10" points="16.2,45.2 13.4,72.4 16.2,72.4 "/>
<path stroke="#FFFFFF" stroke-width="2" stroke-miterlimit="10" d="M88.7,30.2c0-13.8-2.8,42.2-2.8,42.2h2.8
	C88.7,72.4,88.7,44,88.7,30.2z"/>
<polygon stroke="#FFFFFF" stroke-width="2" stroke-miterlimit="10" points="27.8,40.3 23.3,72.4 27.8,72.4 "/>
<polygon stroke="#FFFFFF" stroke-width="2" stroke-miterlimit="10" points="51.2,33 48.4,72.4 51.2,72.4 "/>
<polygon stroke="#FFFFFF" stroke-width="2" stroke-miterlimit="10" points="39.5,38.4 36.8,71.6 39.5,71.6 "/>
<polygon stroke="#FFFFFF" stroke-width="2" stroke-miterlimit="10" points="66,33 63.2,72.4 66,72.4 "/>
<path stroke="#FFFFFF" stroke-width="2" stroke-miterlimit="10" d="M76.9,30.2c0-13.8-2.8,42.2-2.8,42.2h2.8
	C76.9,72.4,76.9,44,76.9,30.2z"/>
<path stroke="#FFFFFF" stroke-width="2" stroke-miterlimit="10" d="M102.2,51.3c0-6.9-2.8,21.1-2.8,21.1h2.8
	C102.2,72.4,102.2,58.2,102.2,51.3z"/>
<path stroke="#FFFFFF" stroke-width="4" stroke-miterlimit="10" d="M40.1,112.1l4.8-4.8c-0.9-5.5-3.9-9.6-7.4-9.6
	c-4.2,0-7.7,5.8-7.7,13s3.4,13,7.7,13c3,0,5.6-3,6.9-7.2L40.1,112.1z"/>
<path fill="#FFFFFF" stroke="#FFFFFF" stroke-width="4" stroke-miterlimit="10" d="M24.5,138.5c1.9,3.5,2.2,7.2,2,10.4
	c-0.5,5.9-3.2,10.4-3.2,10.4"/>
<path fill="none" stroke="#FFFFFF" stroke-width="4" stroke-miterlimit="10" d="M26.5,149c0,0,21.3,19.8,51.3,14.8"/>
<path stroke="#FFFFFF" stroke-width="4" stroke-miterlimit="10" d="M-138.9-137.9l4.8-4.8c-0.9-5.5-3.9-9.6-7.4-9.6
	c-4.2,0-7.7,5.8-7.7,13s3.4,13,7.7,13c3,0,5.6-3,6.9-7.2L-138.9-137.9z"/>
<path stroke="#FFFFFF" stroke-width="4" stroke-miterlimit="10" d="M70.8,109.2L66,114c0.9,5.5,3.9,9.6,7.4,9.6
	c4.2,0,7.7-5.8,7.7-13s-3.4-13-7.7-13c-3,0-5.6,3-6.9,7.2L70.8,109.2z"/>
</svg>
