<?xml version="1.0" encoding="utf-8"?>
<!-- Generator: Adobe Illustrator 19.1.0, SVG Export Plug-In . SVG Version: 6.00 Build 0)  -->
<svg version="1.1" xmlns="http://www.w3.org/2000/svg" xmlns:xlink="http://www.w3.org/1999/xlink" x="0px" y="0px"
	 viewBox="0 0 221.9 278.9" style="enable-background:new 0 0 221.9 278.9;" xml:space="preserve">
<style type="text/css">
	.st0{fill:#1D71B8;}
	.st1{fill:none;stroke:#1D71B8;stroke-width:5;stroke-miterlimit:10;}
	.st2{fill:#1D71B8;stroke:#1D71B8;stroke-width:5;stroke-miterlimit:10;}
	.st3{fill:#1D71B8;stroke:#1D71B8;stroke-miterlimit:10;}
	.st4{opacity:0.1;enable-background:new    ;}
</style>
<g id="Layer_1">
	<g>
		<g>
			<g>
				<path class="st0" d="M12.7,161.9c-2-4.4,4.4-7.2,6.8-3.1c1.2,2.1,4.4,0.2,3.2-1.9c-2-3.5-6.4-5.1-10.1-3.2
					c-3.8,2-4.8,6.4-3.2,10.1C10.4,166,13.7,164.1,12.7,161.9L12.7,161.9z"/>
			</g>
		</g>
		<g>
			<g>
				<path class="st0" d="M23.6,185.1c-4.5-4.3-4.9-10.5-1.1-15.4c1.5-1.9-1.8-3.8-3.2-1.9c-4.7,6.2-3.8,14.6,1.7,20
					C22.7,189.5,25.4,186.8,23.6,185.1L23.6,185.1z"/>
			</g>
		</g>
		<path class="st1" d="M19.5,147.7c-5.4-2.7-12.2-4.2-15.6,2.5c-6.2,12.2,11.2,50.8,11.2,50.8s3.6,7.1,10.3,8.9"/>
	</g>
	<g>
		<g>
			<g>
				<path class="st0" d="M212.4,163.8c1.6-3.7,0.6-8.1-3.2-10.1c-3.7-1.9-8.1-0.3-10.1,3.2c-1.2,2.1,2.1,4,3.2,1.9
					c2.3-4.1,8.7-1.3,6.8,3.1C208.2,164.1,211.5,166,212.4,163.8L212.4,163.8z"/>
			</g>
		</g>
		<g>
			<g>
				<path class="st0" d="M201.2,187.8c5.7-5.3,6.7-13.6,2.1-20c-1.4-1.9-4.7-0.1-3.2,1.9c3.7,5,3.1,11.2-1.5,15.4
					C196.7,186.8,199.4,189.4,201.2,187.8L201.2,187.8z"/>
			</g>
		</g>
		<path class="st1" d="M202.4,147.7c5.4-2.7,12.2-4.2,15.6,2.5c6.2,12.2-11.2,50.8-11.2,50.8s-3.6,7.1-10.3,8.9"/>
	</g>
	<g>
		<g>
			<path class="st0" d="M94.9,231.9c10.4,5.4,23.6,4.2,34.2,0.2c2.2-0.8,1.3-4.5-1-3.6c-9.6,3.6-21.8,5.1-31.3,0.2
				C94.7,227.5,92.8,230.8,94.9,231.9L94.9,231.9z"/>
		</g>
	</g>
	<g>
		<g>
			<g>
				<path class="st1" d="M102,25c5.1-2.1,13.4-2.1,18.5,0l80.7,73.5c2.4,4.9,4,13.5,3.5,18.9l-8.9,95.9c-0.5,5.5-4.2,13-8.3,16.8
					l-42.4,39.4c-4,3.7-11.8,6.8-17.3,6.8h-5.4c-5.5,0-10.5,0-11.1,0s-5.6,0-11.1,0h-5.4c-5.5,0-13.3-3.1-17.3-6.8L35,230.2
					c-4-3.7-7.7-11.3-8.3-16.8l-8.9-95.9c-0.5-5.5,1.1-14,3.5-18.9L102,25z"/>
			</g>
		</g>
	</g>
	<path class="st2" d="M206,105.8l-5.7,56.7c1.3-10.1-17.3-44-17.3-44l-2-33.7c-16.5-4.7-42.4-9.2-69.3-9.7
		c-26.1,0.4-52.6,5-69.1,9.5l-2.2,33.8c0,0-19.6,34.2-18.3,44l-4.7-56.7l0,0.9c0-36.2,19.4-70.8,49.9-87.6l9.6,9.9
		c0,0,14.6-26.4,66.8-26.4c2,0,7.6,23.3,9.6,23.5c27.6,3.7,52.8,44.8,52.8,80.6V105.8z"/>
</g>
<g id="Layer_2">
	<g>
		<g>
			<path class="st0" d="M94.4,171.8c-2.6,1.7-5.1,4.3-6.1,7.3c-2.2,6.2,3,10.8,7.9,13.6c2.1,1.2,4-2.1,1.9-3.2
				c-3.9-2.2-8.5-5.6-5.6-10.4c0.9-1.6,2.3-3,3.8-4C98.3,173.7,96.5,170.5,94.4,171.8L94.4,171.8z"/>
		</g>
	</g>
	<g>
		<g>
			<path class="st0" d="M127.4,175.1c1.5,1,2.9,2.4,3.8,4c2.8,4.8-1.8,8.2-5.6,10.4c-2.1,1.2-0.2,4.4,1.9,3.2
				c4.9-2.8,10.1-7.4,7.9-13.6c-1.1-3-3.5-5.5-6.1-7.3C127.3,170.5,125.4,173.7,127.4,175.1L127.4,175.1z"/>
		</g>
	</g>
	<g>
		<g>
			<path class="st0" d="M99.5,186.9c0.3-0.5,5.6,5.9,6.5,6.8c2.2,2,5.4,2.1,8.2,1.5c1.9-0.5,3.3-1.5,4.6-2.8
				c1.1-1.1,5.1-6.4,6.8-5.5c2.1,1.1,4-2.1,1.9-3.2c-6.5-3.3-9.8,7.9-15.6,8.1c-3.6,0.1-11.1-13.1-15.6-6.7
				C94.9,187,98.1,188.9,99.5,186.9L99.5,186.9z"/>
		</g>
	</g>
	<path class="st3" d="M81.4,151.2c0,5.1-4.1,9.2-9.2,9.2h0c-5.1,0-9.2-4.1-9.2-9.2l0,0c0-5.1,4.1-9.2,9.2-9.2h0
		C77.3,142.1,81.4,146.2,81.4,151.2L81.4,151.2z"/>
	<g>
		<g>
			<path class="st0" d="M57.4,135.5c8.7-5.3,20.7-5.1,29.5,0c2.8,1.6,5.3-2.7,2.5-4.3c-10.2-5.9-24.3-6.2-34.5,0
				C52.2,132.9,54.7,137.2,57.4,135.5L57.4,135.5z"/>
		</g>
	</g>
	<g class="st4">
		<g>
			<path class="st0" d="M58,165.3c8.2,5.9,20.1,5.6,28.4,0c1.3-0.9,0.1-3.1-1.3-2.2c-7.6,5.2-18.3,5.4-25.9,0
				C58,162.3,56.7,164.4,58,165.3L58,165.3z"/>
		</g>
	</g>
	<g>
		<g>
			<path class="st0" d="M136.4,135.5c8.7-5.3,20.7-5.1,29.5,0c2.8,1.6,5.3-2.7,2.5-4.3c-10.2-5.9-24.3-6.2-34.5,0
				C131.1,132.9,133.6,137.2,136.4,135.5L136.4,135.5z"/>
		</g>
	</g>
	<g>
		<g>
			<path class="st0" d="M81.1,215.3c16.9,12,45.5,12,62.3,0c2.6-1.9,0.1-6.2-2.5-4.3c-15.5,11.1-41.7,11.1-57.3,0
				C81,209.1,78.5,213.5,81.1,215.3L81.1,215.3z"/>
		</g>
	</g>
	<path class="st3" d="M160.3,151.2c0,5.1-4.1,9.2-9.2,9.2h0c-5.1,0-9.2-4.1-9.2-9.2l0,0c0-5.1,4.1-9.2,9.2-9.2h0
		C156.2,142.1,160.3,146.2,160.3,151.2L160.3,151.2z"/>
	<g class="st4">
		<g>
			<path class="st0" d="M136.9,165.3c8.2,5.9,20.1,5.6,28.4,0c1.3-0.9,0.1-3.1-1.3-2.2c-7.6,5.2-18.3,5.4-25.9,0
				C136.9,162.3,135.6,164.4,136.9,165.3L136.9,165.3z"/>
		</g>
	</g>
	<g>
		<g>
			<path class="st0" d="M120.4,141.6c-2.9,6.9-2.7,17,1,23.7c1.2,2.1,4.4,0.2,3.2-1.9c-3.2-5.8-3.2-14.8-0.6-20.8
				C124.9,140.4,121.3,139.4,120.4,141.6L120.4,141.6z"/>
		</g>
	</g>
</g>
</svg>
