<?xml version="1.0" encoding="utf-8"?>
<!-- Generator: Adobe Illustrator 19.0.1, SVG Export Plug-In . SVG Version: 6.00 Build 0)  -->
<svg version="1.1" id="Layer_1" xmlns="http://www.w3.org/2000/svg" xmlns:xlink="http://www.w3.org/1999/xlink" x="0px" y="0px"
	 viewBox="0 0 221.8 278.8" style="enable-background:new 0 0 221.8 278.8;" xml:space="preserve">
<style type="text/css">
	.st0{fill:#010101;}
	.st1{fill:#fff;stroke:#010101;stroke-width:5;stroke-miterlimit:10;}
	.st2{fill:#A3AF39;stroke:#010101;stroke-width:5;stroke-miterlimit:10;}
	.st3{opacity:0.9;fill:#010101;stroke:#010101;stroke-miterlimit:10;enable-background:new    ;}
	.st4{opacity:0.2;fill:none;stroke:#010101;stroke-width:4;stroke-miterlimit:10;}
	.st5{opacity:0.29;fill:none;stroke:#010101;stroke-width:4;stroke-miterlimit:10;}
	.st6{opacity:0.2;}
	.st7{opacity:0.1;}
</style>
<g>
	<g>
		<g>
			<path class="st0" d="M12.6,161.9c-2-4.4,4.4-7.2,6.8-3.1c1.2,2.1,4.4,0.2,3.2-1.9c-2-3.5-6.4-5.1-10.1-3.2
				c-3.8,2-4.8,6.4-3.2,10.1C10.3,166,13.6,164.1,12.6,161.9L12.6,161.9z"/>
		</g>
	</g>
	<g>
		<g>
			<path class="st0" d="M23.5,185.1c-4.5-4.3-4.9-10.5-1.1-15.4c1.5-1.9-1.8-3.8-3.2-1.9c-4.7,6.2-3.8,14.6,1.7,20
				C22.6,189.5,25.3,186.8,23.5,185.1L23.5,185.1z"/>
		</g>
	</g>
	<path class="st1" d="M19.4,147.7c-5.4-2.7-12.2-4.2-15.6,2.5C-2.4,162.4,15,201,15,201s3.6,7.1,10.3,8.9"/>
</g>
<g>
	<g>
		<g>
			<path class="st0" d="M212.3,163.8c1.6-3.7,0.6-8.1-3.2-10.1c-3.7-1.9-8.1-0.3-10.1,3.2c-1.2,2.1,2.1,4,3.2,1.9
				c2.3-4.1,8.7-1.3,6.8,3.1C208.1,164.1,211.4,166,212.3,163.8L212.3,163.8z"/>
		</g>
	</g>
	<g>
		<g>
			<path class="st0" d="M201.1,187.8c5.7-5.3,6.7-13.6,2.1-20c-1.4-1.9-4.7-0.1-3.2,1.9c3.7,5,3.1,11.2-1.5,15.4
				C196.6,186.8,199.3,189.4,201.1,187.8L201.1,187.8z"/>
		</g>
	</g>
	<path class="st1" d="M202.3,147.7c5.4-2.7,12.2-4.2,15.6,2.5c6.2,12.2-11.2,50.8-11.2,50.8s-3.6,7.1-10.3,8.9"/>
</g>
<g>
	<g>
		<path class="st0" d="M94.8,231.9c10.4,5.4,23.6,4.2,34.2,0.2c2.2-0.8,1.3-4.5-1-3.6c-9.6,3.6-21.8,5.1-31.3,0.2
			C94.6,227.5,92.7,230.8,94.8,231.9L94.8,231.9z"/>
	</g>
</g>
<g>
	<g>
		<g>
			<path class="st1" d="M101.9,25c5.1-2.1,13.4-2.1,18.5,0l80.7,73.5c2.4,4.9,4,13.5,3.5,18.9l-8.9,95.9c-0.5,5.5-4.2,13-8.3,16.8
				L145,269.5c-4,3.7-11.8,6.8-17.3,6.8h-5.4c-5.5,0-10.5,0-11.1,0s-5.6,0-11.1,0h-5.4c-5.5,0-13.3-3.1-17.3-6.8l-42.5-39.3
				c-4-3.7-7.7-11.3-8.3-16.8l-8.9-95.9c-0.5-5.5,1.1-14,3.5-18.9L101.9,25z"/>
		</g>
	</g>
</g>
<path class="st2" d="M205.9,105.8l-5.7,56.7c1.3-10.1-17.3-44-17.3-44l-2-33.7c-16.5-4.7-42.4-9.2-69.3-9.7
	c-26.1,0.4-52.6,5-69.1,9.5l-2.2,33.8c0,0-19.6,34.2-18.3,44l-4.7-56.7v0.9c0-36.2,19.4-70.8,49.9-87.6l9.6,9.9
	c0,0,14.6-26.4,66.8-26.4c2,0,7.6,23.3,9.6,23.5c27.6,3.7,52.8,44.8,52.8,80.6v-0.8H205.9z"/>
<path class="st3" d="M81.3,151.2c0,5.1-4.1,9.2-9.2,9.2l0,0c-5.1,0-9.2-4.1-9.2-9.2l0,0c0-5.1,4.1-9.2,9.2-9.2l0,0
	C77.2,142.1,81.3,146.2,81.3,151.2L81.3,151.2z"/>
<g>
	<g>
		<path class="st0" d="M57.3,135.5c8.7-5.3,20.7-5.1,29.5,0c2.8,1.6,5.3-2.7,2.5-4.3c-10.2-5.9-24.3-6.2-34.5,0
			C52.1,132.9,54.6,137.2,57.3,135.5L57.3,135.5z"/>
	</g>
</g>
<g>
	<g>
		<path class="st0" d="M136.3,135.5c8.7-5.3,20.7-5.1,29.5,0c2.8,1.6,5.3-2.7,2.5-4.3c-10.2-5.9-24.3-6.2-34.5,0
			C131,132.9,133.5,137.2,136.3,135.5L136.3,135.5z"/>
	</g>
</g>
<g>
	<g>
		<path class="st0" d="M81,215.3c16.9,12,45.5,12,62.3,0c2.6-1.9,0.1-6.2-2.5-4.3c-15.5,11.1-41.7,11.1-57.3,0
			C80.9,209.1,78.4,213.5,81,215.3L81,215.3z"/>
	</g>
</g>
<path class="st3" d="M160.2,151.2c0,5.1-4.1,9.2-9.2,9.2l0,0c-5.1,0-9.2-4.1-9.2-9.2l0,0c0-5.1,4.1-9.2,9.2-9.2l0,0
	C156.1,142.1,160.2,146.2,160.2,151.2L160.2,151.2z"/>
<g>
	<g>
		<path class="st0" d="M103.4,188.3c5.6,5.4,12.6,4.2,18.3,0.2c1.2-0.8,0.7-4.5-0.5-3.6c-5.1,3.6-11.6,5.1-16.7,0.2
			C103.3,183.9,102.3,187.2,103.4,188.3L103.4,188.3z"/>
	</g>
</g>
<line class="st4" x1="30.1" y1="182.9" x2="30.1" y2="197.5"/>
<line class="st4" x1="31.4" y1="202.5" x2="31.4" y2="219.2"/>
<line class="st4" x1="39.4" y1="219.2" x2="39.4" y2="231.9"/>
<line class="st4" x1="47.4" y1="228.4" x2="47.4" y2="240.9"/>
<line class="st4" x1="56.8" y1="240.9" x2="56.8" y2="247.9"/>
<line class="st4" x1="67.4" y1="244.4" x2="67.4" y2="259.1"/>
<line class="st4" x1="74.1" y1="253.2" x2="74.1" y2="263.5"/>
<line class="st4" x1="86.1" y1="260.9" x2="86.1" y2="274.2"/>
<line class="st4" x1="97.8" y1="263.5" x2="97.8" y2="274.2"/>
<line class="st4" x1="112.1" y1="263.5" x2="112.1" y2="274.2"/>
<line class="st4" x1="124.8" y1="265.5" x2="124.8" y2="274.2"/>
<line class="st4" x1="136.4" y1="263.5" x2="136.4" y2="269.8"/>
<line class="st5" x1="136.4" y1="269.8" x2="136.4" y2="272.5"/>
<line class="st4" x1="149.1" y1="251.7" x2="149.1" y2="262.2"/>
<line class="st4" x1="162.4" y1="238.5" x2="162.4" y2="251.5"/>
<line class="st4" x1="173.8" y1="231.9" x2="173.8" y2="240.9"/>
<line class="st4" x1="182.1" y1="224.3" x2="182.1" y2="231.9"/>
<line class="st4" x1="189.4" y1="217.4" x2="189.4" y2="225.6"/>
<line class="st4" x1="189.4" y1="195.2" x2="189.4" y2="209.9"/>
<line class="st4" x1="84.1" y1="191.9" x2="84.1" y2="202.5"/>
<line class="st4" x1="97.8" y1="195.2" x2="97.8" y2="204.9"/>
<line class="st4" x1="111.2" y1="197.5" x2="111.2" y2="206.9"/>
<line class="st4" x1="124.8" y1="197.5" x2="124.8" y2="204.9"/>
<line class="st4" x1="141.8" y1="195.2" x2="141.8" y2="201.2"/>
<line class="st4" x1="157.1" y1="195.2" x2="157.1" y2="209.9"/>
<line class="st4" x1="165.8" y1="206.9" x2="165.8" y2="221.5"/>
<line class="st4" x1="72.1" y1="198.2" x2="72.1" y2="206.9"/>
<line class="st4" x1="62.9" y1="204.9" x2="62.9" y2="225.6"/>
<line class="st4" x1="72.1" y1="235.5" x2="72.1" y2="240.9"/>
<line class="st4" x1="151" y1="231.9" x2="151" y2="240.9"/>
<g class="st6">
	<g>
		<path class="st0" d="M114.6,145.3c-2.9,6.9-2.7,17,1,23.7c1.2,2.1,4.4,0.2,3.2-1.9c-3.2-5.8-3.2-14.8-0.6-20.8
			C119.1,144.1,115.5,143.1,114.6,145.3L114.6,145.3z"/>
	</g>
</g>
<g class="st7">
	<g>
		<path class="st0" d="M55.7,54.4c-2.9,6.9-2.7,17,1,23.7c1.2,2.1,4.4,0.2,3.2-1.9c-3.2-5.8-3.2-14.8-0.6-20.8
			C60.2,53.2,56.6,52.2,55.7,54.4L55.7,54.4z"/>
	</g>
</g>
<g class="st7">
	<g>
		<path class="st0" d="M68.6,42.8c-4.3,10.1-4,25,1.5,34.8c1.8,3.1,6.5,0.3,4.7-2.8c-4.7-8.5-4.7-21.8-0.9-30.6
			C75.2,41.1,69.9,39.6,68.6,42.8L68.6,42.8z"/>
	</g>
</g>
<g class="st7">
	<g>
		<path class="st0" d="M155.1,78.2c1.9-4.5,1.8-11.1-0.7-15.4c-0.8-1.4-2.9-0.1-2.1,1.2c2.1,3.8,2.1,9.6,0.4,13.5
			C152.1,79,154.5,79.6,155.1,78.2L155.1,78.2z"/>
	</g>
</g>
<g class="st7">
	<g>
		<path class="st0" d="M167,79.5c2.9-6.9,2.7-17-1-23.7c-1.2-2.1-4.4-0.2-3.2,1.9c3.2,5.8,3.2,14.8,0.6,20.8
			C162.5,80.7,166.1,81.7,167,79.5L167,79.5z"/>
	</g>
</g>
<g class="st7">
	<g>
		<path class="st0" d="M116.3,5.5c-8.2,7.3-16.3,20.5-18.5,31.2c-0.7,3.4,3.7,2.7,4.4-0.7c1.9-9.3,9.3-20.9,16.5-27.2
			C121.3,6.5,118.9,3.2,116.3,5.5L116.3,5.5z"/>
	</g>
</g>
</svg>
